<svg xmlns="http://www.w3.org/2000/svg" width="400" height="200" viewBox="0 0 400 200">
  <defs>
    <linearGradient id="gearAFill" x1="0" y1="0" x2="1" y2="1">
      <stop offset="0%" stop-color="#d8dce5"/>
      <stop offset="100%" stop-color="#c0c8d5"/>
    </linearGradient>
    <linearGradient id="gearBFill" x1="0" y1="0" x2="1" y2="1">
      <stop offset="0%" stop-color="#cdd3df"/>
      <stop offset="100%" stop-color="#b5bfcf"/>
    </linearGradient>
    <filter id="gShadow" x="-5%" y="-5%" width="115%" height="115%">
      <feDropShadow dx="1" dy="1" stdDeviation="1.5" flood-color="#1a3a6b" flood-opacity="0.15"/>
    </filter>
    <marker id="meshArr" viewBox="0 0 8 8" refX="4" refY="4" markerWidth="5" markerHeight="5" orient="auto">
      <path d="M0,1 L7,4 L0,7 Z" fill="#c8960a"/>
    </marker>
  </defs>
  <style>
    text { font-family: Arial, sans-serif; }
  </style>
  <!-- Background with grid -->
  <rect width="400" height="200" rx="10" fill="#f0f4fa" stroke="#d0daea" stroke-width="2"/>
  <g stroke="#d8dfe8" stroke-width="0.3">
    <line x1="0" y1="20" x2="400" y2="20"/><line x1="0" y1="40" x2="400" y2="40"/>
    <line x1="0" y1="60" x2="400" y2="60"/><line x1="0" y1="80" x2="400" y2="80"/>
    <line x1="0" y1="100" x2="400" y2="100"/><line x1="0" y1="120" x2="400" y2="120"/>
    <line x1="0" y1="140" x2="400" y2="140"/><line x1="0" y1="160" x2="400" y2="160"/>
    <line x1="0" y1="180" x2="400" y2="180"/>
    <line x1="20" y1="0" x2="20" y2="200"/><line x1="40" y1="0" x2="40" y2="200"/>
    <line x1="60" y1="0" x2="60" y2="200"/><line x1="80" y1="0" x2="80" y2="200"/>
    <line x1="100" y1="0" x2="100" y2="200"/><line x1="120" y1="0" x2="120" y2="200"/>
    <line x1="140" y1="0" x2="140" y2="200"/><line x1="160" y1="0" x2="160" y2="200"/>
    <line x1="180" y1="0" x2="180" y2="200"/><line x1="200" y1="0" x2="200" y2="200"/>
    <line x1="220" y1="0" x2="220" y2="200"/><line x1="240" y1="0" x2="240" y2="200"/>
    <line x1="260" y1="0" x2="260" y2="200"/><line x1="280" y1="0" x2="280" y2="200"/>
    <line x1="300" y1="0" x2="300" y2="200"/><line x1="320" y1="0" x2="320" y2="200"/>
    <line x1="340" y1="0" x2="340" y2="200"/><line x1="360" y1="0" x2="360" y2="200"/>
    <line x1="380" y1="0" x2="380" y2="200"/>
  </g>

  <!-- Title -->
  <text x="200" y="18" text-anchor="middle" font-size="11" fill="#5a7090" font-weight="600">Gear Ratio -- Find the Speed</text>

  <!-- GEAR A: 20 teeth, center 110,90, body radius 38, animated CW -->
  <g filter="url(#gShadow)">
    <!-- 20 teeth at 18-degree intervals, tooth size 7x10 -->
    <rect x="106.5" y="45" width="7" height="10" rx="1" fill="url(#gearAFill)" stroke="#1a3a6b" stroke-width="1.5" transform="rotate(0,110,90)"/>
    <rect x="106.5" y="45" width="7" height="10" rx="1" fill="url(#gearAFill)" stroke="#1a3a6b" stroke-width="1.5" transform="rotate(18,110,90)"/>
    <rect x="106.5" y="45" width="7" height="10" rx="1" fill="url(#gearAFill)" stroke="#1a3a6b" stroke-width="1.5" transform="rotate(36,110,90)"/>
    <rect x="106.5" y="45" width="7" height="10" rx="1" fill="url(#gearAFill)" stroke="#1a3a6b" stroke-width="1.5" transform="rotate(54,110,90)"/>
    <rect x="106.5" y="45" width="7" height="10" rx="1" fill="url(#gearAFill)" stroke="#1a3a6b" stroke-width="1.5" transform="rotate(72,110,90)"/>
    <rect x="106.5" y="45" width="7" height="10" rx="1" fill="url(#gearAFill)" stroke="#1a3a6b" stroke-width="1.5" transform="rotate(90,110,90)"/>
    <rect x="106.5" y="45" width="7" height="10" rx="1" fill="url(#gearAFill)" stroke="#1a3a6b" stroke-width="1.5" transform="rotate(108,110,90)"/>
    <rect x="106.5" y="45" width="7" height="10" rx="1" fill="url(#gearAFill)" stroke="#1a3a6b" stroke-width="1.5" transform="rotate(126,110,90)"/>
    <rect x="106.5" y="45" width="7" height="10" rx="1" fill="url(#gearAFill)" stroke="#1a3a6b" stroke-width="1.5" transform="rotate(144,110,90)"/>
    <rect x="106.5" y="45" width="7" height="10" rx="1" fill="url(#gearAFill)" stroke="#1a3a6b" stroke-width="1.5" transform="rotate(162,110,90)"/>
    <rect x="106.5" y="45" width="7" height="10" rx="1" fill="url(#gearAFill)" stroke="#1a3a6b" stroke-width="1.5" transform="rotate(180,110,90)"/>
    <rect x="106.5" y="45" width="7" height="10" rx="1" fill="url(#gearAFill)" stroke="#1a3a6b" stroke-width="1.5" transform="rotate(198,110,90)"/>
    <rect x="106.5" y="45" width="7" height="10" rx="1" fill="url(#gearAFill)" stroke="#1a3a6b" stroke-width="1.5" transform="rotate(216,110,90)"/>
    <rect x="106.5" y="45" width="7" height="10" rx="1" fill="url(#gearAFill)" stroke="#1a3a6b" stroke-width="1.5" transform="rotate(234,110,90)"/>
    <rect x="106.5" y="45" width="7" height="10" rx="1" fill="url(#gearAFill)" stroke="#1a3a6b" stroke-width="1.5" transform="rotate(252,110,90)"/>
    <rect x="106.5" y="45" width="7" height="10" rx="1" fill="url(#gearAFill)" stroke="#1a3a6b" stroke-width="1.5" transform="rotate(270,110,90)"/>
    <rect x="106.5" y="45" width="7" height="10" rx="1" fill="url(#gearAFill)" stroke="#1a3a6b" stroke-width="1.5" transform="rotate(288,110,90)"/>
    <rect x="106.5" y="45" width="7" height="10" rx="1" fill="url(#gearAFill)" stroke="#1a3a6b" stroke-width="1.5" transform="rotate(306,110,90)"/>
    <rect x="106.5" y="45" width="7" height="10" rx="1" fill="url(#gearAFill)" stroke="#1a3a6b" stroke-width="1.5" transform="rotate(324,110,90)"/>
    <rect x="106.5" y="45" width="7" height="10" rx="1" fill="url(#gearAFill)" stroke="#1a3a6b" stroke-width="1.5" transform="rotate(342,110,90)"/>
    <!-- Gear body -->
    <circle cx="110" cy="90" r="38" fill="url(#gearAFill)" stroke="#1a3a6b" stroke-width="2"/>
    <!-- Dashed inner ring -->
    <circle cx="110" cy="90" r="28" fill="none" stroke="#8a9ab5" stroke-width="0.6" stroke-dasharray="2,3"/>
    <!-- Lightening holes (4) -->
    <circle cx="110" cy="72" r="5" fill="#e8ecf2" stroke="#9aa8bf" stroke-width="0.8"/>
    <circle cx="128" cy="90" r="5" fill="#e8ecf2" stroke="#9aa8bf" stroke-width="0.8"/>
    <circle cx="110" cy="108" r="5" fill="#e8ecf2" stroke="#9aa8bf" stroke-width="0.8"/>
    <circle cx="92" cy="90" r="5" fill="#e8ecf2" stroke="#9aa8bf" stroke-width="0.8"/>
    <!-- Hub -->
    <circle cx="110" cy="90" r="11" fill="#e0e4ec" stroke="#1a3a6b" stroke-width="1.8"/>
    <rect x="108" y="80" width="4" height="10" fill="#1a3a6b" rx="0.5"/>
    <circle cx="110" cy="90" r="4" fill="#1a3a6b"/>
  </g>

  <!-- GEAR B: 40 teeth, center 270,90, body radius 58 (STATIC) -->
  <g filter="url(#gShadow)">
    <!-- 40 teeth at 9-degree intervals, tooth size 8x12 -->
    <rect x="266" y="24" width="8" height="12" rx="1" fill="url(#gearBFill)" stroke="#1a3a6b" stroke-width="1.3" transform="rotate(0,270,90)"/>
    <rect x="266" y="24" width="8" height="12" rx="1" fill="url(#gearBFill)" stroke="#1a3a6b" stroke-width="1.3" transform="rotate(9,270,90)"/>
    <rect x="266" y="24" width="8" height="12" rx="1" fill="url(#gearBFill)" stroke="#1a3a6b" stroke-width="1.3" transform="rotate(18,270,90)"/>
    <rect x="266" y="24" width="8" height="12" rx="1" fill="url(#gearBFill)" stroke="#1a3a6b" stroke-width="1.3" transform="rotate(27,270,90)"/>
    <rect x="266" y="24" width="8" height="12" rx="1" fill="url(#gearBFill)" stroke="#1a3a6b" stroke-width="1.3" transform="rotate(36,270,90)"/>
    <rect x="266" y="24" width="8" height="12" rx="1" fill="url(#gearBFill)" stroke="#1a3a6b" stroke-width="1.3" transform="rotate(45,270,90)"/>
    <rect x="266" y="24" width="8" height="12" rx="1" fill="url(#gearBFill)" stroke="#1a3a6b" stroke-width="1.3" transform="rotate(54,270,90)"/>
    <rect x="266" y="24" width="8" height="12" rx="1" fill="url(#gearBFill)" stroke="#1a3a6b" stroke-width="1.3" transform="rotate(63,270,90)"/>
    <rect x="266" y="24" width="8" height="12" rx="1" fill="url(#gearBFill)" stroke="#1a3a6b" stroke-width="1.3" transform="rotate(72,270,90)"/>
    <rect x="266" y="24" width="8" height="12" rx="1" fill="url(#gearBFill)" stroke="#1a3a6b" stroke-width="1.3" transform="rotate(81,270,90)"/>
    <rect x="266" y="24" width="8" height="12" rx="1" fill="url(#gearBFill)" stroke="#1a3a6b" stroke-width="1.3" transform="rotate(90,270,90)"/>
    <rect x="266" y="24" width="8" height="12" rx="1" fill="url(#gearBFill)" stroke="#1a3a6b" stroke-width="1.3" transform="rotate(99,270,90)"/>
    <rect x="266" y="24" width="8" height="12" rx="1" fill="url(#gearBFill)" stroke="#1a3a6b" stroke-width="1.3" transform="rotate(108,270,90)"/>
    <rect x="266" y="24" width="8" height="12" rx="1" fill="url(#gearBFill)" stroke="#1a3a6b" stroke-width="1.3" transform="rotate(117,270,90)"/>
    <rect x="266" y="24" width="8" height="12" rx="1" fill="url(#gearBFill)" stroke="#1a3a6b" stroke-width="1.3" transform="rotate(126,270,90)"/>
    <rect x="266" y="24" width="8" height="12" rx="1" fill="url(#gearBFill)" stroke="#1a3a6b" stroke-width="1.3" transform="rotate(135,270,90)"/>
    <rect x="266" y="24" width="8" height="12" rx="1" fill="url(#gearBFill)" stroke="#1a3a6b" stroke-width="1.3" transform="rotate(144,270,90)"/>
    <rect x="266" y="24" width="8" height="12" rx="1" fill="url(#gearBFill)" stroke="#1a3a6b" stroke-width="1.3" transform="rotate(153,270,90)"/>
    <rect x="266" y="24" width="8" height="12" rx="1" fill="url(#gearBFill)" stroke="#1a3a6b" stroke-width="1.3" transform="rotate(162,270,90)"/>
    <rect x="266" y="24" width="8" height="12" rx="1" fill="url(#gearBFill)" stroke="#1a3a6b" stroke-width="1.3" transform="rotate(171,270,90)"/>
    <rect x="266" y="24" width="8" height="12" rx="1" fill="url(#gearBFill)" stroke="#1a3a6b" stroke-width="1.3" transform="rotate(180,270,90)"/>
    <rect x="266" y="24" width="8" height="12" rx="1" fill="url(#gearBFill)" stroke="#1a3a6b" stroke-width="1.3" transform="rotate(189,270,90)"/>
    <rect x="266" y="24" width="8" height="12" rx="1" fill="url(#gearBFill)" stroke="#1a3a6b" stroke-width="1.3" transform="rotate(198,270,90)"/>
    <rect x="266" y="24" width="8" height="12" rx="1" fill="url(#gearBFill)" stroke="#1a3a6b" stroke-width="1.3" transform="rotate(207,270,90)"/>
    <rect x="266" y="24" width="8" height="12" rx="1" fill="url(#gearBFill)" stroke="#1a3a6b" stroke-width="1.3" transform="rotate(216,270,90)"/>
    <rect x="266" y="24" width="8" height="12" rx="1" fill="url(#gearBFill)" stroke="#1a3a6b" stroke-width="1.3" transform="rotate(225,270,90)"/>
    <rect x="266" y="24" width="8" height="12" rx="1" fill="url(#gearBFill)" stroke="#1a3a6b" stroke-width="1.3" transform="rotate(234,270,90)"/>
    <rect x="266" y="24" width="8" height="12" rx="1" fill="url(#gearBFill)" stroke="#1a3a6b" stroke-width="1.3" transform="rotate(243,270,90)"/>
    <rect x="266" y="24" width="8" height="12" rx="1" fill="url(#gearBFill)" stroke="#1a3a6b" stroke-width="1.3" transform="rotate(252,270,90)"/>
    <rect x="266" y="24" width="8" height="12" rx="1" fill="url(#gearBFill)" stroke="#1a3a6b" stroke-width="1.3" transform="rotate(261,270,90)"/>
    <rect x="266" y="24" width="8" height="12" rx="1" fill="url(#gearBFill)" stroke="#1a3a6b" stroke-width="1.3" transform="rotate(270,270,90)"/>
    <rect x="266" y="24" width="8" height="12" rx="1" fill="url(#gearBFill)" stroke="#1a3a6b" stroke-width="1.3" transform="rotate(279,270,90)"/>
    <rect x="266" y="24" width="8" height="12" rx="1" fill="url(#gearBFill)" stroke="#1a3a6b" stroke-width="1.3" transform="rotate(288,270,90)"/>
    <rect x="266" y="24" width="8" height="12" rx="1" fill="url(#gearBFill)" stroke="#1a3a6b" stroke-width="1.3" transform="rotate(297,270,90)"/>
    <rect x="266" y="24" width="8" height="12" rx="1" fill="url(#gearBFill)" stroke="#1a3a6b" stroke-width="1.3" transform="rotate(306,270,90)"/>
    <rect x="266" y="24" width="8" height="12" rx="1" fill="url(#gearBFill)" stroke="#1a3a6b" stroke-width="1.3" transform="rotate(315,270,90)"/>
    <rect x="266" y="24" width="8" height="12" rx="1" fill="url(#gearBFill)" stroke="#1a3a6b" stroke-width="1.3" transform="rotate(324,270,90)"/>
    <rect x="266" y="24" width="8" height="12" rx="1" fill="url(#gearBFill)" stroke="#1a3a6b" stroke-width="1.3" transform="rotate(333,270,90)"/>
    <rect x="266" y="24" width="8" height="12" rx="1" fill="url(#gearBFill)" stroke="#1a3a6b" stroke-width="1.3" transform="rotate(342,270,90)"/>
    <rect x="266" y="24" width="8" height="12" rx="1" fill="url(#gearBFill)" stroke="#1a3a6b" stroke-width="1.3" transform="rotate(351,270,90)"/>
    <!-- Gear body -->
    <circle cx="270" cy="90" r="58" fill="url(#gearBFill)" stroke="#1a3a6b" stroke-width="2"/>
    <!-- Dashed inner ring -->
    <circle cx="270" cy="90" r="46" fill="none" stroke="#8a9ab5" stroke-width="0.6" stroke-dasharray="2,3"/>
    <!-- Lightening holes (6) -->
    <circle cx="270" cy="64" r="6.5" fill="#dde2eb" stroke="#9aa8bf" stroke-width="0.8"/>
    <circle cx="292" cy="77" r="6.5" fill="#dde2eb" stroke="#9aa8bf" stroke-width="0.8"/>
    <circle cx="292" cy="103" r="6.5" fill="#dde2eb" stroke="#9aa8bf" stroke-width="0.8"/>
    <circle cx="270" cy="116" r="6.5" fill="#dde2eb" stroke="#9aa8bf" stroke-width="0.8"/>
    <circle cx="248" cy="103" r="6.5" fill="#dde2eb" stroke="#9aa8bf" stroke-width="0.8"/>
    <circle cx="248" cy="77" r="6.5" fill="#dde2eb" stroke="#9aa8bf" stroke-width="0.8"/>
    <!-- Hub -->
    <circle cx="270" cy="90" r="14" fill="#d4d9e4" stroke="#1a3a6b" stroke-width="1.8"/>
    <rect x="268" y="78" width="4" height="12" fill="#1a3a6b" rx="0.5"/>
    <circle cx="270" cy="90" r="5.5" fill="#1a3a6b"/>
  </g>

  <!-- Mesh point indicator -->
  <line x1="152" y1="82" x2="208" y2="82" stroke="#c8960a" stroke-width="1.2" stroke-dasharray="3,2"/>
  <line x1="152" y1="98" x2="208" y2="98" stroke="#c8960a" stroke-width="1.2" stroke-dasharray="3,2"/>
  <line x1="172" y1="78" x2="172" y2="90" stroke="#c8960a" stroke-width="1.5" marker-end="url(#meshArr)"/>
  <line x1="188" y1="102" x2="188" y2="90" stroke="#c8960a" stroke-width="1.5" marker-end="url(#meshArr)"/>
  <text x="180" y="76" text-anchor="middle" font-size="7.5" fill="#c8960a" font-weight="600">MESH</text>

  <!-- Labels -->
  <text x="110" y="168" text-anchor="middle" font-size="12" font-weight="700" fill="#1a3a6b">GEAR A</text>
  <text x="110" y="181" text-anchor="middle" font-size="9.5" fill="#5a7090">20 TEETH</text>
  <text x="110" y="194" text-anchor="middle" font-size="9.5" font-weight="600" fill="#1a3a6b">80 RPM &#x21bb;</text>

  <text x="270" y="168" text-anchor="middle" font-size="12" font-weight="700" fill="#1a3a6b">GEAR B</text>
  <text x="270" y="181" text-anchor="middle" font-size="9.5" fill="#5a7090">40 TEETH</text>
  <text x="270" y="194" text-anchor="middle" font-size="11" font-weight="700" fill="#dc2626">? RPM  ?</text>
</svg>