<svg xmlns="http://www.w3.org/2000/svg" width="400" height="200" viewBox="0 0 400 200">
  <defs>
    <linearGradient id="p3PulleyFill" x1="0" y1="0" x2="1" y2="1">
      <stop offset="0%" stop-color="#d8dce5"/>
      <stop offset="100%" stop-color="#b8c2d2"/>
    </linearGradient>
    <linearGradient id="p3WeightFill" x1="0" y1="0" x2="0" y2="1">
      <stop offset="0%" stop-color="#daa520"/>
      <stop offset="100%" stop-color="#a07800"/>
    </linearGradient>
    <linearGradient id="p3BeamFill" x1="0" y1="0" x2="0" y2="1">
      <stop offset="0%" stop-color="#6a8098"/>
      <stop offset="100%" stop-color="#4a6078"/>
    </linearGradient>
    <filter id="p3Shadow" x="-5%" y="-5%" width="115%" height="115%">
      <feDropShadow dx="1" dy="1" stdDeviation="1.5" flood-color="#1a3a6b" flood-opacity="0.15"/>
    </filter>
  </defs>
  <style>
    @keyframes bob { 0%,100% { transform: translateY(0); } 50% { transform: translateY(3px); } }
    .load-bob { animation: bob 2.5s ease-in-out infinite; }
    text { font-family: Arial, sans-serif; }
  </style>
  <!-- Background with grid -->
  <rect width="400" height="200" rx="10" fill="#f0f4fa" stroke="#d0daea" stroke-width="2"/>
  <g stroke="#d8dfe8" stroke-width="0.3">
    <line x1="0" y1="20" x2="400" y2="20"/><line x1="0" y1="40" x2="400" y2="40"/>
    <line x1="0" y1="60" x2="400" y2="60"/><line x1="0" y1="80" x2="400" y2="80"/>
    <line x1="0" y1="100" x2="400" y2="100"/><line x1="0" y1="120" x2="400" y2="120"/>
    <line x1="0" y1="140" x2="400" y2="140"/><line x1="0" y1="160" x2="400" y2="160"/>
    <line x1="0" y1="180" x2="400" y2="180"/>
    <line x1="20" y1="0" x2="20" y2="200"/><line x1="40" y1="0" x2="40" y2="200"/>
    <line x1="60" y1="0" x2="60" y2="200"/><line x1="80" y1="0" x2="80" y2="200"/>
    <line x1="100" y1="0" x2="100" y2="200"/><line x1="120" y1="0" x2="120" y2="200"/>
    <line x1="140" y1="0" x2="140" y2="200"/><line x1="160" y1="0" x2="160" y2="200"/>
    <line x1="180" y1="0" x2="180" y2="200"/><line x1="200" y1="0" x2="200" y2="200"/>
    <line x1="220" y1="0" x2="220" y2="200"/><line x1="240" y1="0" x2="240" y2="200"/>
    <line x1="260" y1="0" x2="260" y2="200"/>
  </g>

  <!-- Title -->
  <text x="200" y="18" text-anchor="middle" font-size="11" fill="#5a7090" font-weight="600">Compound Pulley System -- Find the Mechanical Advantage</text>

  <!-- Ceiling / support beam -->
  <rect x="50" y="25" width="180" height="10" rx="3" fill="url(#p3BeamFill)" stroke="#3a5070" stroke-width="1.5"/>
  <!-- Ceiling hatch marks -->
  <line x1="50" y1="25" x2="60" y2="18" stroke="#3a5070" stroke-width="1"/>
  <line x1="70" y1="25" x2="80" y2="18" stroke="#3a5070" stroke-width="1"/>
  <line x1="90" y1="25" x2="100" y2="18" stroke="#3a5070" stroke-width="1"/>
  <line x1="110" y1="25" x2="120" y2="18" stroke="#3a5070" stroke-width="1"/>
  <line x1="130" y1="25" x2="140" y2="18" stroke="#3a5070" stroke-width="1"/>
  <line x1="150" y1="25" x2="160" y2="18" stroke="#3a5070" stroke-width="1"/>
  <line x1="170" y1="25" x2="180" y2="18" stroke="#3a5070" stroke-width="1"/>
  <line x1="190" y1="25" x2="200" y2="18" stroke="#3a5070" stroke-width="1"/>
  <line x1="210" y1="25" x2="220" y2="18" stroke="#3a5070" stroke-width="1"/>

  <!-- Mounting bracket -->
  <rect x="130" y="32" width="8" height="12" rx="1" fill="#5a7090" stroke="#3a5070" stroke-width="1"/>

  <!-- Fixed upper pulley (attached to ceiling) -->
  <g filter="url(#p3Shadow)">
    <circle cx="134" cy="52" r="12" fill="url(#p3PulleyFill)" stroke="#1a3a6b" stroke-width="2"/>
    <circle cx="134" cy="52" r="9" fill="none" stroke="#8a9ab5" stroke-width="0.8"/>
    <circle cx="134" cy="52" r="4" fill="#e0e5ee" stroke="#1a3a6b" stroke-width="1.2"/>
    <circle cx="134" cy="52" r="1.5" fill="#1a3a6b"/>
  </g>
  <text x="155" y="50" font-size="8" fill="#5a7090" font-weight="600">Fixed</text>

  <!-- Bobbing group: lower pulley + weight + ropes to lower pulley -->
  <g class="load-bob">
    <!-- Lower movable pulley -->
    <g filter="url(#p3Shadow)">
      <circle cx="150" cy="105" r="12" fill="url(#p3PulleyFill)" stroke="#1a3a6b" stroke-width="2"/>
      <circle cx="150" cy="105" r="9" fill="none" stroke="#8a9ab5" stroke-width="0.8"/>
      <circle cx="150" cy="105" r="4" fill="#e0e5ee" stroke="#1a3a6b" stroke-width="1.2"/>
      <circle cx="150" cy="105" r="1.5" fill="#1a3a6b"/>
    </g>
    <text x="170" y="103" font-size="8" fill="#5a7090" font-weight="600">Movable</text>

    <!-- Bracket connecting lower pulley to weight -->
    <line x1="150" y1="117" x2="150" y2="128" stroke="#5a7090" stroke-width="2"/>

    <!-- Weight block -->
    <rect x="120" y="128" width="60" height="40" rx="5" fill="url(#p3WeightFill)" stroke="#8a6000" stroke-width="2" filter="url(#p3Shadow)"/>
    <text x="150" y="145" text-anchor="middle" font-size="11" font-weight="800" fill="#fff">LOAD</text>
    <text x="150" y="160" text-anchor="middle" font-size="8" fill="#fff" opacity="0.8">Weight</text>

    <!-- Rope 1: from ceiling anchor straight down to left side of movable pulley -->
    <line x1="110" y1="35" x2="110" y2="105" stroke="#444" stroke-width="2.5"/>
    <line x1="110" y1="105" x2="138" y2="105" stroke="#444" stroke-width="2.5"/>

    <!-- Rope 2: from bottom of movable pulley up over top of fixed pulley -->
    <line x1="162" y1="105" x2="146" y2="52" stroke="#444" stroke-width="2.5"/>
  </g>

  <!-- Rope 3: from fixed pulley left side down (effort rope - not bobbing) -->
  <line x1="122" y1="52" x2="122" y2="105" stroke="#444" stroke-width="2.5"/>

  <!-- Pull rope from fixed pulley going right (effort end) -->
  <line x1="146" y1="52" x2="210" y2="52" stroke="#444" stroke-width="2.5"/>
  <line x1="210" y1="52" x2="210" y2="82" stroke="#444" stroke-width="2.5"/>
  <!-- Effort arrow -->
  <polygon points="203,78 210,92 217,78" fill="#1a3a6b"/>
  <text x="210" y="104" text-anchor="middle" font-size="10" font-weight="700" fill="#1a3a6b">Pull</text>

  <!-- Rope number labels (circled) -->
  <circle cx="105" cy="65" r="9" fill="#1a3a6b"/>
  <text x="105" y="69" text-anchor="middle" font-size="10" font-weight="700" fill="#fff">1</text>

  <circle cx="132" cy="80" r="9" fill="#1a3a6b"/>
  <text x="132" y="84" text-anchor="middle" font-size="10" font-weight="700" fill="#fff">2</text>

  <circle cx="168" cy="78" r="9" fill="#1a3a6b"/>
  <text x="168" y="82" text-anchor="middle" font-size="10" font-weight="700" fill="#fff">3</text>

  <!-- MA = ? label -->
  <rect x="270" y="45" width="110" height="55" rx="8" fill="rgba(220,38,38,0.06)" stroke="#dc2626" stroke-width="1.5" stroke-dasharray="5,3"/>
  <text x="325" y="65" text-anchor="middle" font-size="10" fill="#5a7090" font-weight="600">Mechanical Advantage</text>
  <text x="325" y="88" text-anchor="middle" font-size="22" font-weight="800" fill="#dc2626">MA = ?</text>

  <text x="325" y="120" text-anchor="middle" font-size="9" fill="#5a7090">3 ropes support</text>
  <text x="325" y="132" text-anchor="middle" font-size="9" fill="#5a7090">the load</text>

  <!-- Bottom label -->
  <text x="200" y="190" text-anchor="middle" font-size="9" fill="#8a9ab5">Count the rope segments supporting the movable pulley</text>
</svg>