<svg xmlns="http://www.w3.org/2000/svg" width="400" height="200" viewBox="0 0 400 200">
  <defs>
    <linearGradient id="g1Fill" x1="0" y1="0" x2="1" y2="1">
      <stop offset="0%" stop-color="#d8dce5"/>
      <stop offset="100%" stop-color="#c0c8d5"/>
    </linearGradient>
    <linearGradient id="g2Fill" x1="0" y1="0" x2="1" y2="1">
      <stop offset="0%" stop-color="#cdd3df"/>
      <stop offset="100%" stop-color="#b5bfcf"/>
    </linearGradient>
    <linearGradient id="g3Fill" x1="0" y1="0" x2="1" y2="1">
      <stop offset="0%" stop-color="#c5ccd8"/>
      <stop offset="100%" stop-color="#adb8ca"/>
    </linearGradient>
    <linearGradient id="g4Fill" x1="0" y1="0" x2="1" y2="1">
      <stop offset="0%" stop-color="#f5d5d5"/>
      <stop offset="100%" stop-color="#e8b0b0"/>
    </linearGradient>
    <filter id="gShadow" x="-8%" y="-8%" width="120%" height="120%">
      <feDropShadow dx="1" dy="1" stdDeviation="1.5" flood-color="#1a3a6b" flood-opacity="0.15"/>
    </filter>
  </defs>
  <style>
    text { font-family: Arial, sans-serif; }
  </style>
  <!-- Background with grid -->
  <rect width="400" height="200" rx="10" fill="#f0f4fa" stroke="#d0daea" stroke-width="2"/>
  <g stroke="#d8dfe8" stroke-width="0.3">
    <line x1="0" y1="20" x2="400" y2="20"/><line x1="0" y1="40" x2="400" y2="40"/>
    <line x1="0" y1="60" x2="400" y2="60"/><line x1="0" y1="80" x2="400" y2="80"/>
    <line x1="0" y1="100" x2="400" y2="100"/><line x1="0" y1="120" x2="400" y2="120"/>
    <line x1="0" y1="140" x2="400" y2="140"/><line x1="0" y1="160" x2="400" y2="160"/>
    <line x1="0" y1="180" x2="400" y2="180"/>
    <line x1="20" y1="0" x2="20" y2="200"/><line x1="40" y1="0" x2="40" y2="200"/>
    <line x1="60" y1="0" x2="60" y2="200"/><line x1="80" y1="0" x2="80" y2="200"/>
    <line x1="100" y1="0" x2="100" y2="200"/><line x1="120" y1="0" x2="120" y2="200"/>
    <line x1="140" y1="0" x2="140" y2="200"/><line x1="160" y1="0" x2="160" y2="200"/>
    <line x1="180" y1="0" x2="180" y2="200"/><line x1="200" y1="0" x2="200" y2="200"/>
    <line x1="220" y1="0" x2="220" y2="200"/><line x1="240" y1="0" x2="240" y2="200"/>
    <line x1="260" y1="0" x2="260" y2="200"/><line x1="280" y1="0" x2="280" y2="200"/>
    <line x1="300" y1="0" x2="300" y2="200"/><line x1="320" y1="0" x2="320" y2="200"/>
    <line x1="340" y1="0" x2="340" y2="200"/><line x1="360" y1="0" x2="360" y2="200"/>
    <line x1="380" y1="0" x2="380" y2="200"/>
  </g>

  <!-- Title -->
  <text x="200" y="18" text-anchor="middle" font-size="11" fill="#5a7090" font-weight="600">Gear Train -- Gear 1 turns clockwise. What direction does Gear 4 turn?</text>

  <!-- Gear 1 (animated) center=55,100 R~28 -->
  <g filter="url(#gShadow)">
    <path d="M83,100 L82.2,93.8 L77.2,89 L81.8,85.2 L80,79.4 L74,77.8 L76.6,72.4
      L70.2,72.6 L70.8,66.8 L64.6,68.8 L63.2,63.2 L57.6,67 L54.4,62.2
      L49.8,67.4 L45,63.8 L42,69.8 L36,67.4 L35,73.4 L28.8,73 L29.8,79
      L24,80.6 L27,86.2 L21.8,89.6 L26.4,94 L22.8,98.6 L28.2,101.4 L26.2,106.6
      L32,107.4 L31.8,113 L37.6,111.8 L39.4,117.4 L44.6,114 L48,119 L52.2,114.4
      L56.8,118.2 L59.4,112.6 L65,115.2 L65.8,109.2 L71.6,110 L70.4,104
      L76.2,102.8 L73.4,97.6 L78.8,94.6 Z" fill="url(#g1Fill)" stroke="#1a3a6b" stroke-width="1.8"/>
    <circle cx="55" cy="100" r="22" fill="none" stroke="#8a9ab5" stroke-width="0.6" stroke-dasharray="2,3"/>
    <circle cx="55" cy="82" r="4" fill="#e8ecf2" stroke="#9aa8bf" stroke-width="0.7"/>
    <circle cx="73" cy="100" r="4" fill="#e8ecf2" stroke="#9aa8bf" stroke-width="0.7"/>
    <circle cx="55" cy="118" r="4" fill="#e8ecf2" stroke="#9aa8bf" stroke-width="0.7"/>
    <circle cx="37" cy="100" r="4" fill="#e8ecf2" stroke="#9aa8bf" stroke-width="0.7"/>
    <circle cx="55" cy="100" r="7" fill="#e0e5ee" stroke="#1a3a6b" stroke-width="1.5"/>
    <circle cx="55" cy="100" r="2.5" fill="#1a3a6b"/>
  </g>
  <text x="55" y="140" text-anchor="middle" font-size="11" font-weight="700" fill="#1a3a6b">1</text>
  <text x="55" y="152" text-anchor="middle" font-size="9" fill="#c8960a" font-weight="600">CW</text>

  <!-- Mesh indicator 1-2 -->
  <line x1="80" y1="95" x2="95" y2="95" stroke="#c8960a" stroke-width="1" stroke-dasharray="2,2"/>
  <line x1="80" y1="100" x2="95" y2="100" stroke="#c8960a" stroke-width="1" stroke-dasharray="2,2"/>
  <line x1="80" y1="105" x2="95" y2="105" stroke="#c8960a" stroke-width="1" stroke-dasharray="2,2"/>
  <polygon points="93,92 98,100 93,108" fill="none" stroke="#c8960a" stroke-width="0.8"/>

  <!-- Gear 2 (static) center=130,100 -->
  <g filter="url(#gShadow)">
    <path d="M158,100 L157.2,93.8 L152.2,89 L156.8,85.2 L155,79.4 L149,77.8 L151.6,72.4
      L145.2,72.6 L145.8,66.8 L139.6,68.8 L138.2,63.2 L132.6,67 L129.4,62.2
      L124.8,67.4 L120,63.8 L117,69.8 L111,67.4 L110,73.4 L103.8,73 L104.8,79
      L99,80.6 L102,86.2 L96.8,89.6 L101.4,94 L97.8,98.6 L103.2,101.4 L101.2,106.6
      L107,107.4 L106.8,113 L112.6,111.8 L114.4,117.4 L119.6,114 L123,119 L127.2,114.4
      L131.8,118.2 L134.4,112.6 L140,115.2 L140.8,109.2 L146.6,110 L145.4,104
      L151.2,102.8 L148.4,97.6 L153.8,94.6 Z" fill="url(#g2Fill)" stroke="#1a3a6b" stroke-width="1.8"/>
    <circle cx="130" cy="100" r="22" fill="none" stroke="#8a9ab5" stroke-width="0.6" stroke-dasharray="2,3"/>
    <circle cx="130" cy="82" r="4" fill="#e8ecf2" stroke="#9aa8bf" stroke-width="0.7"/>
    <circle cx="148" cy="100" r="4" fill="#e8ecf2" stroke="#9aa8bf" stroke-width="0.7"/>
    <circle cx="130" cy="118" r="4" fill="#e8ecf2" stroke="#9aa8bf" stroke-width="0.7"/>
    <circle cx="112" cy="100" r="4" fill="#e8ecf2" stroke="#9aa8bf" stroke-width="0.7"/>
    <circle cx="130" cy="100" r="7" fill="#e0e5ee" stroke="#1a3a6b" stroke-width="1.5"/>
    <circle cx="130" cy="100" r="2.5" fill="#1a3a6b"/>
  </g>
  <text x="130" y="140" text-anchor="middle" font-size="11" font-weight="600" fill="#5a7090">2</text>

  <!-- Mesh indicator 2-3 -->
  <line x1="155" y1="95" x2="170" y2="95" stroke="#c8960a" stroke-width="1" stroke-dasharray="2,2"/>
  <line x1="155" y1="100" x2="170" y2="100" stroke="#c8960a" stroke-width="1" stroke-dasharray="2,2"/>
  <line x1="155" y1="105" x2="170" y2="105" stroke="#c8960a" stroke-width="1" stroke-dasharray="2,2"/>
  <polygon points="168,92 173,100 168,108" fill="none" stroke="#c8960a" stroke-width="0.8"/>

  <!-- Gear 3 (static) center=205,100 -->
  <g filter="url(#gShadow)">
    <path d="M233,100 L232.2,93.8 L227.2,89 L231.8,85.2 L230,79.4 L224,77.8 L226.6,72.4
      L220.2,72.6 L220.8,66.8 L214.6,68.8 L213.2,63.2 L207.6,67 L204.4,62.2
      L199.8,67.4 L195,63.8 L192,69.8 L186,67.4 L185,73.4 L178.8,73 L179.8,79
      L174,80.6 L177,86.2 L171.8,89.6 L176.4,94 L172.8,98.6 L178.2,101.4 L176.2,106.6
      L182,107.4 L181.8,113 L187.6,111.8 L189.4,117.4 L194.6,114 L198,119 L202.2,114.4
      L206.8,118.2 L209.4,112.6 L215,115.2 L215.8,109.2 L221.6,110 L220.4,104
      L226.2,102.8 L223.4,97.6 L228.8,94.6 Z" fill="url(#g3Fill)" stroke="#1a3a6b" stroke-width="1.8"/>
    <circle cx="205" cy="100" r="22" fill="none" stroke="#8a9ab5" stroke-width="0.6" stroke-dasharray="2,3"/>
    <circle cx="205" cy="82" r="4" fill="#e8ecf2" stroke="#9aa8bf" stroke-width="0.7"/>
    <circle cx="223" cy="100" r="4" fill="#e8ecf2" stroke="#9aa8bf" stroke-width="0.7"/>
    <circle cx="205" cy="118" r="4" fill="#e8ecf2" stroke="#9aa8bf" stroke-width="0.7"/>
    <circle cx="187" cy="100" r="4" fill="#e8ecf2" stroke="#9aa8bf" stroke-width="0.7"/>
    <circle cx="205" cy="100" r="7" fill="#e0e5ee" stroke="#1a3a6b" stroke-width="1.5"/>
    <circle cx="205" cy="100" r="2.5" fill="#1a3a6b"/>
  </g>
  <text x="205" y="140" text-anchor="middle" font-size="11" font-weight="600" fill="#5a7090">3</text>

  <!-- Mesh indicator 3-4 -->
  <line x1="230" y1="95" x2="245" y2="95" stroke="#c8960a" stroke-width="1" stroke-dasharray="2,2"/>
  <line x1="230" y1="100" x2="245" y2="100" stroke="#c8960a" stroke-width="1" stroke-dasharray="2,2"/>
  <line x1="230" y1="105" x2="245" y2="105" stroke="#c8960a" stroke-width="1" stroke-dasharray="2,2"/>
  <polygon points="243,92 248,100 243,108" fill="none" stroke="#c8960a" stroke-width="0.8"/>

  <!-- Gear 4 (red, static, highlighted) center=280,100 -->
  <g filter="url(#gShadow)">
    <path d="M308,100 L307.2,93.8 L302.2,89 L306.8,85.2 L305,79.4 L299,77.8 L301.6,72.4
      L295.2,72.6 L295.8,66.8 L289.6,68.8 L288.2,63.2 L282.6,67 L279.4,62.2
      L274.8,67.4 L270,63.8 L267,69.8 L261,67.4 L260,73.4 L253.8,73 L254.8,79
      L249,80.6 L252,86.2 L246.8,89.6 L251.4,94 L247.8,98.6 L253.2,101.4 L251.2,106.6
      L257,107.4 L256.8,113 L262.6,111.8 L264.4,117.4 L269.6,114 L273,119 L277.2,114.4
      L281.8,118.2 L284.4,112.6 L290,115.2 L290.8,109.2 L296.6,110 L295.4,104
      L301.2,102.8 L298.4,97.6 L303.8,94.6 Z" fill="url(#g4Fill)" stroke="#dc2626" stroke-width="2.2"/>
    <circle cx="280" cy="100" r="22" fill="none" stroke="#dc2626" stroke-width="0.6" stroke-dasharray="2,3" opacity="0.5"/>
    <circle cx="280" cy="82" r="4" fill="#fce8e8" stroke="#dc2626" stroke-width="0.7"/>
    <circle cx="298" cy="100" r="4" fill="#fce8e8" stroke="#dc2626" stroke-width="0.7"/>
    <circle cx="280" cy="118" r="4" fill="#fce8e8" stroke="#dc2626" stroke-width="0.7"/>
    <circle cx="262" cy="100" r="4" fill="#fce8e8" stroke="#dc2626" stroke-width="0.7"/>
    <circle cx="280" cy="100" r="7" fill="#fce0e0" stroke="#dc2626" stroke-width="1.5"/>
    <circle cx="280" cy="100" r="2.5" fill="#dc2626"/>
  </g>
  <text x="280" y="140" text-anchor="middle" font-size="12" font-weight="700" fill="#dc2626">4 = ?</text>

  <!-- Info panel -->
  <rect x="320" y="60" width="72" height="50" rx="6" fill="rgba(220,38,38,0.06)" stroke="#dc2626" stroke-width="1.2" stroke-dasharray="4,3"/>
  <text x="356" y="78" text-anchor="middle" font-size="10" fill="#5a7090" font-weight="600">Direction</text>
  <text x="356" y="92" text-anchor="middle" font-size="10" fill="#5a7090" font-weight="600">of Gear 4</text>
  <text x="356" y="105" text-anchor="middle" font-size="14" font-weight="700" fill="#dc2626">?</text>

  <!-- Bottom label -->
  <text x="200" y="172" text-anchor="middle" font-size="11" fill="#5a7090" font-weight="600">4-Gear Train -- Find the Output Direction</text>
  <text x="200" y="188" text-anchor="middle" font-size="9" fill="#8a9ab5">Each meshing gear reverses direction</text>
</svg>