<svg xmlns="http://www.w3.org/2000/svg" width="400" height="180" viewBox="0 0 400 180">
  <defs>
    <linearGradient id="vtBody" x1="0" y1="0" x2="0" y2="1">
      <stop offset="0%" stop-color="#d0d8e6"/>
      <stop offset="100%" stop-color="#b0bdd0"/>
    </linearGradient>
    <linearGradient id="vtPipe" x1="0" y1="0" x2="0" y2="1">
      <stop offset="0%" stop-color="#b8c8dc"/>
      <stop offset="50%" stop-color="#d0daea"/>
      <stop offset="100%" stop-color="#a0b0c8"/>
    </linearGradient>
    <linearGradient id="vtInternal" x1="0" y1="0" x2="0" y2="1">
      <stop offset="0%" stop-color="#6a7d95"/>
      <stop offset="100%" stop-color="#4a6080"/>
    </linearGradient>
    <linearGradient id="vtHandle" x1="0" y1="0" x2="0" y2="1">
      <stop offset="0%" stop-color="#d8a820"/>
      <stop offset="100%" stop-color="#a07808"/>
    </linearGradient>
    <filter id="vtSh" x="-5%" y="-5%" width="115%" height="115%">
      <feDropShadow dx="0.8" dy="0.8" stdDeviation="1" flood-color="#1a3a6b" flood-opacity="0.15"/>
    </filter>
    <marker id="vtFlow" viewBox="0 0 8 8" refX="8" refY="4" markerWidth="5" markerHeight="5" orient="auto">
      <path d="M0,1 L7,4 L0,7 Z" fill="#5a9acc"/>
    </marker>
  </defs>
  <style>
    text { font-family: Arial, sans-serif; }
  </style>
  <!-- Background with grid -->
  <rect width="400" height="180" rx="10" fill="#f0f4fa" stroke="#d0daea" stroke-width="2"/>
  <g stroke="#d8dfe8" stroke-width="0.3">
    <line x1="0" y1="20" x2="400" y2="20"/><line x1="0" y1="40" x2="400" y2="40"/>
    <line x1="0" y1="60" x2="400" y2="60"/><line x1="0" y1="80" x2="400" y2="80"/>
    <line x1="0" y1="100" x2="400" y2="100"/><line x1="0" y1="120" x2="400" y2="120"/>
    <line x1="0" y1="140" x2="400" y2="140"/><line x1="0" y1="160" x2="400" y2="160"/>
    <line x1="20" y1="0" x2="20" y2="180"/><line x1="40" y1="0" x2="40" y2="180"/>
    <line x1="60" y1="0" x2="60" y2="180"/><line x1="80" y1="0" x2="80" y2="180"/>
    <line x1="100" y1="0" x2="100" y2="180"/><line x1="120" y1="0" x2="120" y2="180"/>
    <line x1="140" y1="0" x2="140" y2="180"/><line x1="160" y1="0" x2="160" y2="180"/>
    <line x1="180" y1="0" x2="180" y2="180"/><line x1="200" y1="0" x2="200" y2="180"/>
    <line x1="220" y1="0" x2="220" y2="180"/><line x1="240" y1="0" x2="240" y2="180"/>
    <line x1="260" y1="0" x2="260" y2="180"/><line x1="280" y1="0" x2="280" y2="180"/>
    <line x1="300" y1="0" x2="300" y2="180"/><line x1="320" y1="0" x2="320" y2="180"/>
    <line x1="340" y1="0" x2="340" y2="180"/><line x1="360" y1="0" x2="360" y2="180"/>
    <line x1="380" y1="0" x2="380" y2="180"/>
  </g>

  <!-- Valve 1: Ball Valve -->
  <g filter="url(#vtSh)">
    <!-- Pipe sections -->
    <rect x="12" y="50" width="22" height="18" rx="2" fill="url(#vtPipe)" stroke="#1a3a6b" stroke-width="1.5"/>
    <rect x="66" y="50" width="22" height="18" rx="2" fill="url(#vtPipe)" stroke="#1a3a6b" stroke-width="1.5"/>
    <!-- Valve body -->
    <circle cx="50" cy="59" r="18" fill="url(#vtBody)" stroke="#1a3a6b" stroke-width="2"/>
    <!-- Ball with bore hole -->
    <circle cx="50" cy="59" r="11" fill="url(#vtInternal)"/>
    <rect x="39" y="56" width="22" height="6" rx="1" fill="#c8d4e2"/>
    <!-- Handle -->
    <rect x="46" y="30" width="8" height="14" fill="#1a3a6b" rx="1"/>
    <rect x="40" y="27" width="20" height="6" rx="2" fill="url(#vtHandle)" stroke="#8a6000" stroke-width="1"/>
    <!-- Flow arrow -->
    <line x1="18" y1="59" x2="28" y2="59" stroke="#5a9acc" stroke-width="1" marker-end="url(#vtFlow)"/>
  </g>
  <text x="50" y="100" text-anchor="middle" font-size="9" font-weight="700" fill="#1a3a6b">Ball</text>
  <text x="50" y="110" text-anchor="middle" font-size="8" font-weight="600" fill="#1a3a6b">Valve</text>

  <!-- Valve 2: Gate Valve -->
  <g filter="url(#vtSh)">
    <rect x="102" y="50" width="22" height="18" rx="2" fill="url(#vtPipe)" stroke="#1a3a6b" stroke-width="1.5"/>
    <rect x="156" y="50" width="22" height="18" rx="2" fill="url(#vtPipe)" stroke="#1a3a6b" stroke-width="1.5"/>
    <!-- Valve body -->
    <rect x="122" y="42" width="36" height="34" rx="3" fill="url(#vtBody)" stroke="#1a3a6b" stroke-width="2"/>
    <!-- Gate wedge -->
    <rect x="138" y="36" width="4" height="26" fill="url(#vtInternal)" stroke="#3a5070" stroke-width="1"/>
    <!-- Stem -->
    <rect x="138" y="24" width="4" height="14" fill="#8a9ab0" stroke="#5a7090" stroke-width="1"/>
    <!-- Handwheel -->
    <circle cx="140" cy="24" r="8" fill="none" stroke="#1a3a6b" stroke-width="2.5"/>
    <circle cx="140" cy="24" r="2.5" fill="#1a3a6b"/>
    <!-- Flow arrow -->
    <line x1="108" y1="59" x2="118" y2="59" stroke="#5a9acc" stroke-width="1" marker-end="url(#vtFlow)"/>
  </g>
  <text x="140" y="100" text-anchor="middle" font-size="9" font-weight="700" fill="#1a3a6b">Gate</text>
  <text x="140" y="110" text-anchor="middle" font-size="8" font-weight="600" fill="#1a3a6b">Valve</text>

  <!-- Valve 3: Globe Valve -->
  <g filter="url(#vtSh)">
    <rect x="192" y="50" width="22" height="18" rx="2" fill="url(#vtPipe)" stroke="#1a3a6b" stroke-width="1.5"/>
    <rect x="246" y="50" width="22" height="18" rx="2" fill="url(#vtPipe)" stroke="#1a3a6b" stroke-width="1.5"/>
    <!-- Globe body (rounded) -->
    <ellipse cx="230" cy="55" rx="20" ry="22" fill="url(#vtBody)" stroke="#1a3a6b" stroke-width="2"/>
    <!-- Internal S-path baffle -->
    <path d="M214,58 Q222,48 230,58 Q238,68 246,58" fill="none" stroke="url(#vtInternal)" stroke-width="2.5"/>
    <!-- Disc/plug -->
    <circle cx="230" cy="50" r="4.5" fill="url(#vtInternal)" stroke="#3a5070" stroke-width="1"/>
    <!-- Stem -->
    <rect x="228" y="26" width="4" height="18" fill="#8a9ab0" stroke="#5a7090" stroke-width="1"/>
    <!-- Handwheel -->
    <circle cx="230" cy="24" r="8" fill="none" stroke="#1a3a6b" stroke-width="2.5"/>
    <circle cx="230" cy="24" r="2.5" fill="#1a3a6b"/>
    <!-- Flow arrow -->
    <line x1="198" y1="59" x2="208" y2="59" stroke="#5a9acc" stroke-width="1" marker-end="url(#vtFlow)"/>
  </g>
  <text x="230" y="100" text-anchor="middle" font-size="9" font-weight="700" fill="#1a3a6b">Globe</text>
  <text x="230" y="110" text-anchor="middle" font-size="8" font-weight="600" fill="#1a3a6b">Valve</text>

  <!-- Valve 4: Check Valve -->
  <g filter="url(#vtSh)">
    <rect x="282" y="50" width="22" height="18" rx="2" fill="url(#vtPipe)" stroke="#1a3a6b" stroke-width="1.5"/>
    <rect x="336" y="50" width="22" height="18" rx="2" fill="url(#vtPipe)" stroke="#1a3a6b" stroke-width="1.5"/>
    <!-- Valve body -->
    <rect x="302" y="42" width="36" height="34" rx="3" fill="url(#vtBody)" stroke="#1a3a6b" stroke-width="2"/>
    <!-- Swing disc (flapper) -->
    <line x1="320" y1="44" x2="310" y2="70" stroke="url(#vtInternal)" stroke-width="3.5" stroke-linecap="round"/>
    <!-- Hinge point -->
    <circle cx="320" cy="44" r="3" fill="#3a5070" stroke="#1a3a6b" stroke-width="1"/>
    <!-- Flow direction arrow -->
    <polygon points="332,59 340,54 340,64" fill="#5a9acc" opacity="0.7"/>
  </g>
  <text x="320" y="100" text-anchor="middle" font-size="9" font-weight="700" fill="#1a3a6b">Check</text>
  <text x="320" y="110" text-anchor="middle" font-size="8" font-weight="600" fill="#1a3a6b">Valve</text>

  <!-- Question -->
  <text x="200" y="133" text-anchor="middle" font-size="13" font-weight="800" fill="#dc2626">Which regulates flow best?</text>

  <!-- Title -->
  <text x="200" y="168" text-anchor="middle" font-size="11" font-weight="600" fill="#5a7090">Valve Types -- Which Regulates Flow Best?</text>
</svg>